<svg width="26" height="26" viewBox="0 0 26 26" fill="none" xmlns="http://www.w3.org/2000/svg">
<path d="M9.03244 1.63125C8.99934 1.50403 8.99164 1.37154 9.00979 1.24134C9.02795 1.11114 9.07159 0.9858 9.13823 0.872487C9.20487 0.759174 9.2932 0.660113 9.39817 0.58097C9.50313 0.501826 9.62267 0.444155 9.74994 0.411255C11.8817 -0.13855 14.1182 -0.13855 16.2499 0.411255C16.4861 0.47171 16.692 0.61632 16.829 0.817909C16.966 1.0195 17.0246 1.26418 16.9939 1.50598C16.9632 1.74778 16.8453 1.97003 16.6622 2.13098C16.4792 2.29193 16.2437 2.38048 15.9999 2.38001C15.9156 2.37956 15.8316 2.36865 15.7499 2.3475C13.9461 1.88227 12.0538 1.88227 10.2499 2.3475C9.99352 2.41365 9.72134 2.37539 9.4931 2.24112C9.26485 2.10684 9.09919 1.88752 9.03244 1.63125ZM3.72369 3.8925C2.18199 5.46241 1.06378 7.39778 0.473691 9.5175C0.402911 9.77311 0.436568 10.0464 0.567258 10.2771C0.697947 10.5079 0.914964 10.6774 1.17057 10.7481C1.42617 10.8189 1.69942 10.7853 1.93021 10.6546C2.16099 10.5239 2.33041 10.3069 2.40119 10.0513C2.90003 8.25697 3.84626 6.61871 5.15119 5.29C5.32188 5.09801 5.41212 4.84769 5.40322 4.59095C5.39432 4.3342 5.28695 4.09073 5.10338 3.91102C4.91981 3.7313 4.67411 3.62913 4.41724 3.62568C4.16037 3.62224 3.91202 3.71778 3.72369 3.8925ZM2.40119 15.9438C2.36606 15.8172 2.30635 15.6988 2.22546 15.5953C2.14457 15.4918 2.0441 15.4053 1.92976 15.3406C1.81543 15.276 1.68949 15.2345 1.55911 15.2185C1.42874 15.2025 1.2965 15.2124 1.16994 15.2475C1.04338 15.2826 0.924976 15.3423 0.821492 15.4232C0.718008 15.5041 0.631468 15.6046 0.566816 15.7189C0.502163 15.8333 0.460663 15.9592 0.444684 16.0896C0.428706 16.22 0.438562 16.3522 0.473691 16.4788C1.06414 18.5983 2.1823 20.5336 3.72369 22.1038C3.90967 22.2929 4.16317 22.4004 4.42842 22.4026C4.69367 22.4048 4.94893 22.3016 5.13807 22.1156C5.3272 21.9296 5.4347 21.6761 5.43693 21.4109C5.43916 21.1457 5.33592 20.8904 5.14994 20.7013C3.84662 19.373 2.90096 17.7363 2.40119 15.9438ZM15.7499 23.6525C13.9462 24.1182 12.0537 24.1182 10.2499 23.6525C10.1221 23.6174 9.98848 23.6081 9.85697 23.6251C9.72545 23.642 9.59863 23.685 9.48388 23.7515C9.36914 23.818 9.26876 23.9066 9.18858 24.0122C9.10841 24.1179 9.05005 24.2384 9.01689 24.3668C8.98374 24.4952 8.97645 24.6289 8.99545 24.7601C9.01446 24.8914 9.05938 25.0175 9.12759 25.1312C9.19581 25.2449 9.28597 25.344 9.39281 25.4225C9.49965 25.5011 9.62105 25.5576 9.74994 25.5888C11.8817 26.1386 14.1182 26.1386 16.2499 25.5888C16.5031 25.5192 16.7188 25.3529 16.8504 25.1257C16.982 24.8985 17.019 24.6287 16.9534 24.3744C16.8877 24.1202 16.7247 23.902 16.4996 23.7669C16.2744 23.6318 16.0051 23.5908 15.7499 23.6525ZM24.8312 15.25C24.7045 15.2149 24.5722 15.2051 24.4418 15.2211C24.3113 15.2371 24.1853 15.2788 24.071 15.3435C23.9566 15.4083 23.8562 15.495 23.7753 15.5986C23.6945 15.7023 23.6349 15.8208 23.5999 15.9475C23.1014 17.7415 22.1551 19.3795 20.8499 20.7075C20.7579 20.8012 20.6853 20.9122 20.6362 21.034C20.587 21.1558 20.5624 21.2861 20.5636 21.4174C20.5648 21.5487 20.5919 21.6786 20.6433 21.7994C20.6946 21.9203 20.7693 22.0299 20.8631 22.1219C20.9568 22.2139 21.0677 22.2865 21.1895 22.3357C21.3113 22.3848 21.4416 22.4095 21.573 22.4082C21.7043 22.407 21.8341 22.3799 21.955 22.3286C22.0759 22.2772 22.1854 22.2025 22.2774 22.1088C23.8194 20.539 24.9376 18.6036 25.5274 16.4838C25.563 16.357 25.5731 16.2245 25.5573 16.0939C25.5416 15.9632 25.5001 15.8369 25.4355 15.7223C25.3708 15.6077 25.2841 15.507 25.1804 15.4259C25.0767 15.3449 24.958 15.2851 24.8312 15.25ZM23.5987 10.0575C23.6338 10.1841 23.6935 10.3025 23.7744 10.406C23.8553 10.5094 23.9558 10.596 24.0701 10.6606C24.1845 10.7253 24.3104 10.7668 24.4408 10.7828C24.5711 10.7987 24.7034 10.7889 24.8299 10.7538C24.9565 10.7186 25.0749 10.6589 25.1784 10.578C25.2819 10.4971 25.3684 10.3967 25.4331 10.2823C25.4977 10.168 25.5392 10.042 25.5552 9.91168C25.5712 9.78131 25.5613 9.64907 25.5262 9.5225C24.9364 7.40267 23.8181 5.46725 22.2762 3.89751C22.1841 3.80386 22.0745 3.72926 21.9536 3.67798C21.8326 3.6267 21.7028 3.59974 21.5715 3.59864C21.4401 3.59754 21.3099 3.62231 21.1881 3.67156C21.0663 3.7208 20.9555 3.79354 20.8618 3.88563C20.7682 3.97772 20.6936 4.08735 20.6423 4.20827C20.591 4.32919 20.5641 4.45902 20.563 4.59036C20.5618 4.72169 20.5866 4.85196 20.6359 4.97372C20.6851 5.09549 20.7579 5.20636 20.8499 5.3C22.1537 6.62744 23.0994 8.26388 23.5987 10.0563V10.0575Z" fill="#A479FD"/>
</svg>
