<svg width="25" height="24" viewBox="0 0 25 24" fill="none" xmlns="http://www.w3.org/2000/svg">
<path fill-rule="evenodd" clip-rule="evenodd" d="M16.5 3.24268H8.5C5.73858 3.24268 3.5 5.48126 3.5 8.24268V16.2427C3.5 19.0041 5.73858 21.2427 8.5 21.2427H16.5C19.2614 21.2427 21.5 19.0041 21.5 16.2427V8.24268C21.5 5.48126 19.2614 3.24268 16.5 3.24268ZM19.75 16.2427C19.7445 18.0353 18.2926 19.4872 16.5 19.4927H8.5C6.70735 19.4872 5.25549 18.0353 5.25 16.2427V8.24268C5.25549 6.45003 6.70735 4.99817 8.5 4.99268H16.5C18.2926 4.99817 19.7445 6.45003 19.75 8.24268V16.2427ZM17.25 8.49268C17.8023 8.49268 18.25 8.04496 18.25 7.49268C18.25 6.9404 17.8023 6.49268 17.25 6.49268C16.6977 6.49268 16.25 6.9404 16.25 7.49268C16.25 8.04496 16.6977 8.49268 17.25 8.49268ZM12.5 7.74268C10.0147 7.74268 8 9.7574 8 12.2427C8 14.728 10.0147 16.7427 12.5 16.7427C14.9853 16.7427 17 14.728 17 12.2427C17.0027 11.0484 16.5294 9.90225 15.6849 9.05776C14.8404 8.21327 13.6943 7.74002 12.5 7.74268ZM9.75 12.2427C9.75 13.7615 10.9812 14.9927 12.5 14.9927C14.0188 14.9927 15.25 13.7615 15.25 12.2427C15.25 10.7239 14.0188 9.49268 12.5 9.49268C10.9812 9.49268 9.75 10.7239 9.75 12.2427Z" fill="#40513B"/>
</svg>
