<svg width="25" height="24" viewBox="0 0 25 24" fill="none" xmlns="http://www.w3.org/2000/svg">
<path fill-rule="evenodd" clip-rule="evenodd" d="M5 3.24268C4.17157 3.24268 3.5 3.91425 3.5 4.74268V19.7427C3.5 20.5711 4.17157 21.2427 5 21.2427H20C20.8284 21.2427 21.5 20.5711 21.5 19.7427V4.74268C21.5 3.91425 20.8284 3.24268 20 3.24268H5ZM9.02076 7.2454C9.02639 8.20165 8.31061 8.79087 7.46123 8.78665C6.66107 8.78243 5.96357 8.1454 5.96779 7.24681C5.97201 6.40165 6.63998 5.72243 7.50764 5.74212C8.38795 5.76181 9.02639 6.40728 9.02076 7.2454ZM12.7797 10.0044H10.2597H10.2583V18.5643H12.9217V18.3646C12.9217 17.9847 12.9214 17.6047 12.9211 17.2246C12.9203 16.2108 12.9194 15.1959 12.9246 14.1824C12.926 13.9363 12.9372 13.6804 13.0005 13.4455C13.2381 12.568 14.0271 12.0013 14.9074 12.1406C15.4727 12.2291 15.8467 12.5568 16.0042 13.0898C16.1013 13.423 16.1449 13.7816 16.1491 14.129C16.1605 15.1766 16.1589 16.2242 16.1573 17.2719C16.1567 17.6417 16.1561 18.0117 16.1561 18.3815V18.5629H18.828V18.3576C18.828 17.9056 18.8278 17.4537 18.8275 17.0018C18.827 15.8723 18.8264 14.7428 18.8294 13.6129C18.8308 13.1024 18.776 12.599 18.6508 12.1054C18.4638 11.3713 18.0771 10.7638 17.4485 10.3251C17.0027 10.0129 16.5133 9.81178 15.9663 9.78928C15.904 9.78669 15.8412 9.7833 15.7781 9.77989C15.4984 9.76477 15.2141 9.74941 14.9467 9.80334C14.1817 9.95662 13.5096 10.3068 13.0019 10.9241C12.9429 10.9949 12.8852 11.0668 12.7991 11.1741L12.7797 11.1984V10.0044ZM6.18164 18.5671H8.83242V10.01H6.18164V18.5671Z" fill="#40513B"/>
</svg>
